PathFileType	4	(X/Y/Z)	5_coords_data.trc
DataRate	CameraRate	NumFrames	NumMarkers	Units	OrigDataRate	OrigDataStartFrame	OrigNumFrames
30.0	30.0	6	21	m	30.0	20	57
Frame#	Time	THUMB_TIP	THUMB_IP	THUMB_MCP	THUMB_CMC	INDEX_TIP	INDEX_DIP	INDEX_PIP	INDEX_MCP	MIDDLE_TIP	MIDDLE_DIP	MIDDLE_PIP	MIDDLE_MCP	RING_TIP	RING_DIP	RING_PIP	RING_MCP	PINKY_TIP	PINKY_DIP	PINKY_PIP	PINKY_MCP	WRIST
X1	Y1	Z1	X2	Y2	Z2	X3	Y3	Z3	X4	Y4	Z4	X5	Y5	Z5	X6	Y6	Z6	X7	Y7	Z7	X8	Y8	Z8	X9	Y9	Z9	X10	Y10	Z10	X11	Y11	Z11	X12	Y12	Z12	X13	Y13	Z13	X14	Y14	Z14	X15	Y15	Z15	X16	Y16	Z16	X17	Y17	Z17	X18	Y18	Z18	X19	Y19	Z19	X20	Y20	Z20	X21	Y21	Z21
18	0.6333333333333304	0.4608622474547437	-0.046774692586743494	-0.17149190439341536	0.469460966108062	-0.04221689619289004	-0.15067632057856034	0.4630985716516477	-0.029713584646174573	-0.12289130416419125	0.4705759914349148	-0.02803633677539441	-0.07894628131785779	0.5691603299274723	0.02462257787724753	-0.17484471781118077	0.555859533315616	0.021509510889721417	-0.16295364454501987	0.5377699521288636	0.017091041573519816	-0.14606417994753537	0.5106940432750009	0.003731431822910025	-0.11602999807006902	0.599283787459345	0.04313053993730054	-0.13183556854319428	0.5831396003236274	0.03683753469561113	-0.12656647879685307	0.5574222201623831	0.027417580286621	-0.1166020236399172	0.5211087279365915	0.008235212211483045	-0.09900898642636896	0.602489841157021	0.04321046412106044	-0.09989143938264018	0.5876479148386254	0.033673395274450235	-0.09618178428083729	0.5660013615790395	0.022659911067842486	-0.09067634364354762	0.531328657759785	0.003437585387455422	-0.08273741176958738	0.6018235970067906	0.019097133820526246	-0.05650551732683631	0.5862007139474292	0.012506043599774808	-0.058847109651609275	0.5664958173876562	0.005829868806737859	-0.06166805997046637	0.5327982220459978	-0.006205641191400213	-0.06619597541518948	0.4622830810018609	-0.023011742144276925	-0.051989820119430985
19	0.6666666666666637	0.46090681523711363	-0.04672375738316159	-0.17151887800885193	0.4695247624315728	-0.04219368062020934	-0.150705195233445	0.46317424925253114	-0.029732168563421313	-0.12289869060554638	0.4705875817799027	-0.028030843156829244	-0.07894373647407786	0.5690953611010631	0.02460263721519529	-0.17490078048902968	0.5557997407993743	0.02150063533269453	-0.16300102985658843	0.5377102727978773	0.017108803415864626	-0.14610449787996277	0.51065023275212	0.003762063136334759	-0.11605029932746787	0.5992134445268024	0.04319411540531659	-0.13189446143250622	0.5830678410730019	0.03691389761898589	-0.1266144658199247	0.5573570815611528	0.027489743636587294	-0.11663690514409285	0.5210536937056471	0.008291441196609739	-0.09904039598358386	0.6024137904002886	0.04332164224951107	-0.0999733281610526	0.5875783271815085	0.0337813497891879	-0.09624615083018606	0.5659401268938388	0.02276095084474683	-0.09072174367501994	0.5312892081058188	0.0035058351348474792	-0.08276717391013383	0.6017931824696489	0.019206267308062075	-0.05655495062683666	0.5861722207402139	0.012609997487043056	-0.058894775213391065	0.5664726576367611	0.005910959338383814	-0.06169872250531527	0.5327744653427521	-0.006125718822216353	-0.0662190837712017	0.462283081001861	-0.023011742144276925	-0.051989820119430985
20	0.6999999999999968	0.4609355824022823	-0.046659236606304555	-0.17154257777565896	0.469554024248645	-0.04215373824357338	-0.15072376549819488	0.4631977422368777	-0.029730878498611446	-0.12290128834852523	0.4705928431901204	-0.028023387045400194	-0.07894350229385047	0.5690068253616324	0.02460802803229767	-0.17497280610044513	0.5557195727023416	0.021513473729627974	-0.1630617754802176	0.5376384974680309	0.017137535441024365	-0.14615214167384766	0.5106181105761416	0.0037813723322281945	-0.11606646911656802	0.5991281823651351	0.04329267269911419	-0.13195601181234123	0.5829851877559267	0.03701717156323936	-0.12666244868900917	0.55728809539185	0.027571274582526173	-0.1166702505193438	0.521011940702002	0.008324532458150902	-0.09907049371659159	0.6022937752294342	0.043498929911854556	-0.10007450152255781	0.5874707120873865	0.03394715178609753	-0.0963274581917193	0.5658527954662419	0.022897398025665594	-0.09078231601184072	0.5312497942806493	0.003566389802525327	-0.08280326443745165	0.6017565575190491	0.019328871551492655	-0.056630819431788854	0.5861372806519418	0.012725282949790473	-0.05896122877954632	0.566445763728141	0.005993977126453109	-0.06174433893769221	0.5327511563685798	-0.006057137331081153	-0.06625294473288054	0.4622830810018609	-0.023011742144276925	-0.051989820119430985
21	0.7333333333333302	0.46095612750898984	-0.046626952834951885	-0.1715605957313619	0.4695706126450704	-0.0421337648347937	-0.15073748579467178	0.46320440693341536	-0.029745696805941524	-0.12290176781669569	0.4705934309496935	-0.02802190885701572	-0.0789435958893509	0.5689064856276579	0.024608775991767806	-0.17505885526182943	0.5556313701816908	0.021515564011442057	-0.1631339506692963	0.5375585360279898	0.017159502712511654	-0.14621038046047888	0.5105897593446866	0.003794464167730216	-0.11608237151692877	0.5990467114080319	0.043377017115054484	-0.1320228597757672	0.5829059762760197	0.037104047888082414	-0.126719415001313	0.557221286946381	0.027641219722724042	-0.11671135988791322	0.5209691591499062	0.008359129726627001	-0.09910079043061074	0.6021726318429661	0.043682506681379296	-0.10016589614953539	0.5873648252149293	0.03411414610516195	-0.09640088104330308	0.5657678722137006	0.023033163330686057	-0.09083640255790218	0.5312135579799266	0.0036249797417081675	-0.08283373977541916	0.6017238484417079	0.019448811023975443	-0.05671319192745128	0.5861069270905583	0.012833322431857197	-0.059025566940194896	0.5664190345656269	0.006079000775879417	-0.06177839201533836	0.5327318395344887	-0.005996754738904375	-0.06627644389156517	0.462283081001861	-0.023011742144276925	-0.051989820119430985
22	0.7666666666666633	0.4609860792642978	-0.0466340521028884	-0.1715674093678763	0.46958252140763945	-0.04214008786009649	-0.15073701167938536	0.46319204872985786	-0.02977067919131937	-0.1228985564754897	0.47059236269267246	-0.028026385523748032	-0.07894309273259376	0.5687917404894436	0.024604744988921845	-0.1751556806271141	0.5555267970684268	0.021514599434028225	-0.16321866774755356	0.5374625152935706	0.017179975175098616	-0.14628046862567226	0.5105394171639599	0.003811338694996058	-0.11611322745638027	0.5989583540071053	0.043433877645376096	-0.13212245892557112	0.5828185554866041	0.03717179200632936	-0.12680332486382098	0.5571451722476255	0.027705186192516607	-0.11676986497052319	0.5209104146790514	0.00840507357140563	-0.09914329645140693	0.602078157327456	0.043805581003944494	-0.10026817245625311	0.587276954319519	0.034233318530128565	-0.09648714340978826	0.5656935162265065	0.023136132223534722	-0.09090255433252856	0.5311767927489983	0.0036709644126826646	-0.082876105773383	0.6017014731132444	0.019539766936378156	-0.05682208864776031	0.586081696095796	0.012923556254200164	-0.059113010325649556	0.5663969191865591	0.006146783775971998	-0.06183274042474035	0.5327135589227653	-0.005947984160014963	-0.06630837232583564	0.4622830810018609	-0.023011742144276925	-0.051989820119430985
23	0.7999999999999965	0.4609851654265843	-0.046606073653332136	-0.17157780573921003	0.4695655007669749	-0.042110149900943306	-0.15074119096955146	0.46316032808542695	-0.029766716375813296	-0.12289458593895125	0.47059177372958394	-0.02801993470503006	-0.07894447365886084	0.5686879142415322	0.024591964887751172	-0.1752468699215052	0.5554292746130698	0.021503618341893516	-0.16330239040939343	0.5373783440170306	0.017190805256900976	-0.14634440170462987	0.5104903430812707	0.003833540079280162	-0.11614084286376973	0.5989002726814907	0.04341618039295214	-0.1322348837057689	0.5827567901733648	0.03717964580761379	-0.12689694319694783	0.5570891107474333	0.027730549429514362	-0.11683243324737741	0.520855761666697	0.00845077428165375	-0.09918073062011108	0.6020617360027504	0.043788427265048835	-0.10034936072454526	0.5872554369241941	0.03422736174015706	-0.09655996319656386	0.5656679882698143	0.023145061776208675	-0.09096133237255061	0.5311493460883382	0.00368859777660846	-0.08292204231810672	0.6017138524751767	0.019515959185569587	-0.05695599664661147	0.5860853796183816	0.012911497211837597	-0.05922137039103906	0.5664008107525482	0.006122711880261034	-0.06191249678867192	0.5327015852081505	-0.005939340899422052	-0.06635687879834948	0.462283081001861	-0.023011742144276925	-0.051989820119430985
